# xmcd
#
# Track frame offsets:
#	150
#	14753
#	30207
#	44213
#	60606
#	67465
#	81039
#	97306
#	111635
#	127957
#	141452
#	152852
#	180449
#	200482
#
# Disc length: 2951 seconds
#
# Revision: 0
# Processed by: cddbd v1.5.2PL0 Copyright (c) Steve Scherf et al.
# Submitted via: dBpowerAMP V4.0
#
DISCID=d80b850e
DTITLE=Chimene BADI - Gospel and soul
DYEAR=2011
DGENRE=Soul
TTITLE0=For once in my life
TTITLE1=Down by the riverside
TTITLE2=Le blues
TTITLE3=Parlez moi de lui
TTITLE4=Nobody knows
TTITLE5=Ain't no mountain high enough 'duà avec Billy Paul)
TTITLE6=quand je pense à ca 
TTITLE7=Ma liberté
TTITLE8=Joshua fit the battle of jericho
TTITLE9=Mercedes Benz
TTITLE10=This World today is a mess
TTITLE11=Amazing Grace (Duo avec Rhoda scott)
TTITLE12=Tu planes sur moi
TTITLE13=Try a little tenderness
EXTD=Chimene  Gospel and soul
EXTT0=
EXTT1=
EXTT2=
EXTT3=
EXTT4=
EXTT5=
EXTT6=
EXTT7=
EXTT8=
EXTT9=
EXTT10=
EXTT11=
EXTT12=
EXTT13=
PLAYORDER=
